<?xml version="1.0" standalone="no"?>
<!DOCTYPE svg PUBLIC "-//W3C//DTD SVG 1.1//EN"
"http://www.w3.org/Graphics/SVG/1.1/DTD/svg11.dtd">

<svg width="308" height="120" view_box="0 0 308 120"
xmlns="http://www.w3.org/2000/svg"
xmlns:link="http://www.w3.org/1999/xlink">\n\n<desc>Généré par Mocodo 2.3.7 le Tue, 02 Jun 2020 00:58:22</desc>

<rect id="frame" x="0" y="0" width="308" height="120" fill="#f5f5f5" stroke="none" stroke-width="0"/>

<!-- Association organize -->
<line x1="48" y1="60" x2="152" y2="60" stroke="#bf812d" stroke-width="2"/>
<text x="92" y="77.0" fill="#01665e" font-family="Verdana" font-size="12">1,1</text>
<line x1="258" y1="60" x2="152" y2="60" stroke="#bf812d" stroke-width="2"/>
<text x="190" y="77.0" fill="#01665e" font-family="Verdana" font-size="12">0,N</text>
<g id="association-organize">
	<path d="M 171 35 a 14 14 90 0 1 14 14 V 60 h -66 V 49 a 14 14 90 0 1 14 -14" fill="#dfc27d" stroke="#dfc27d" stroke-width="0"/>
	<path d="M 185 60.0 v 11 a 14 14 90 0 1 -14 14 H 133 a 14 14 90 0 1 -14 -14 V 60.0 H 66" fill="#f6e8c3" stroke="#f6e8c3" stroke-width="0"/>
	<rect x="119" y="35" width="66" height="50" fill="none" rx="14" stroke="#bf812d" stroke-width="2"/>
	<line x1="119" y1="60" x2="185" y2="60" stroke="#bf812d" stroke-width="1"/>
	<text x="126" y="52.7" fill="#000000" font-family="Verdana" font-size="12">organize</text>
</g>

<!-- Entity CATEGORY -->
<g id="entity-CATEGORY">
	<g id="frame-CATEGORY">
		<rect x="217" y="18" width="82" height="25" fill="#80cdc1" stroke="#80cdc1" stroke-width="0"/>
		<rect x="217" y="43.0" width="82" height="59" fill="#c7eae5" stroke="#c7eae5" stroke-width="0"/>
		<rect x="217" y="18" width="82" height="84" fill="none" stroke="#35978f" stroke-width="2"/>
		<line x1="217" y1="43" x2="299" y2="43" stroke="#35978f" stroke-width="1"/>
	</g>
	<text x="224" y="35.7" fill="#000000" font-family="Verdana" font-size="12">CATEGORY</text>
	<text x="222" y="60.8" fill="#000000" font-family="Verdana" font-size="12">id_category</text>
	<line x1="222" y1="63" x2="294" y2="63" stroke="#000000" stroke-width="1"/>
	<text x="222" y="77.8" fill="#000000" font-family="Verdana" font-size="12">name</text>
	<text x="222" y="94.8" fill="#000000" font-family="Verdana" font-size="12">status</text>
</g>

<!-- Entity TASK -->
<g id="entity-TASK">
	<g id="frame-TASK">
		<rect x="9" y="9" width="78" height="25" fill="#80cdc1" stroke="#80cdc1" stroke-width="0"/>
		<rect x="9" y="34.0" width="78" height="77" fill="#c7eae5" stroke="#c7eae5" stroke-width="0"/>
		<rect x="9" y="9" width="78" height="102" fill="none" stroke="#35978f" stroke-width="2"/>
		<line x1="9" y1="34" x2="87" y2="34" stroke="#35978f" stroke-width="1"/>
	</g>
	<text x="31" y="26.7" fill="#000000" font-family="Verdana" font-size="12">TASK</text>
	<text x="14" y="51.7" fill="#000000" font-family="Verdana" font-size="12">id_task</text>
	<line x1="14" y1="54" x2="59" y2="54" stroke="#000000" stroke-width="1"/>
	<text x="14" y="68.8" fill="#000000" font-family="Verdana" font-size="12">title</text>
	<text x="14" y="85.8" fill="#000000" font-family="Verdana" font-size="12">completion</text>
	<text x="14" y="102.8" fill="#000000" font-family="Verdana" font-size="12">status</text>
</g>
</svg>